/* XPM */
static char *icone_voltar_xpm[] = {
/* columns rows colors chars-per-pixel */
"33 35 2 1",
". c #0000FF",
"  c #C0C0C0",
/* pixels */
"                                 ",
"                                 ",
"                                 ",
"                                 ",
"                                 ",
"                      ..         ",
"                     ...         ",
"                   .....         ",
"                  ......         ",
"                 .......         ",
"                ........         ",
"               .........         ",
"             ...........         ",
"            ............         ",
"           .............         ",
"          ..............         ",
"         ...............         ",
"        ................         ",
"         ...............         ",
"          ..............         ",
"           .............         ",
"            ............         ",
"             ...........         ",
"               .........         ",
"                ........         ",
"                 .......         ",
"                  ......         ",
"                    ....         ",
"                     ...         ",
"                      ..         ",
"                                 ",
"                                 ",
"                                 ",
"                                 ",
"                                 "
};
